# xmcd CD database file
#
# Track frame offsets:
#	150
#	18116
#	33590
#	52540
#	73038
#	94490
#	113883
#	128485
#	142212
#	161166
#	179458
#	196976
#	212339
#	235215
#	256267
#
# Disc length: 3629 seconds
#
# Revision: 1
# Processed by: cddbd v1.5.2PL0 Copyright (c) Steve Scherf et al.
# Submitted via: CDex 1.70beta2
#
DISCID=ce0e2b0f
DTITLE=Ruthie Foster - Runaway Soul and More
DYEAR=1900
DGENRE=Blues
TTITLE0=Woke up This Morning
TTITLE1=Ruthie Foster - Death Came A 'Knockin' (Travelin' Shoes)
TTITLE2=The Fight
TTITLE3=Give You My Love
TTITLE4=Hole in My Pocket
TTITLE5=Home
TTITLE6=Light up the World
TTITLE7=Rain From my Should
TTITLE8=Rainbows
TTITLE9=Runaway Soul
TTITLE10=Smalltown Blues
TTITLE11=Stories
TTITLE12=To The Fallen
TTITLE13=Walk On
TTITLE14=Crossover
EXTD=
EXTT0=
EXTT1=
EXTT2=
EXTT3=
EXTT4=
EXTT5=
EXTT6=
EXTT7=
EXTT8=
EXTT9=
EXTT10=
EXTT11=
EXTT12=
EXTT13=
EXTT14=
PLAYORDER=
